<svg id="Layer_1" data-name="Layer 1" xmlns="http://www.w3.org/2000/svg" viewBox="0 0 1319.51 620.79"><defs><style>.cls-1{fill:#9cc1ff;}.cls-2,.cls-4{fill:none;stroke-miterlimit:10;}.cls-2{stroke:#358aff;}.cls-3{fill:#c85b6c;}.cls-4{stroke:#9e1e35;}</style></defs><title>qrdr logo</title><path class="cls-1" d="M551.85,314.89c-9.52-5.5-25.11-5.5-34.64,0l-158.14,91.3c-9.53,5.5-17.33,19-17.33,30V618.81c0,11,7.8,24.5,17.33,30l158.14,91.3c9.53,5.5,25.12,5.5,34.64,0l63.77-36.81c9.52-5.5,17.32-1,17.32,10V817.39a20.06,20.06,0,0,0,20,20h54.38a20.06,20.06,0,0,0,20-20V436.19c0-11-7.79-24.5-17.32-30Zm81.09,240.76c0,11-.64,22.32-1.43,25.16s-13.87,12.33-23.39,17.83L559.35,626.8c-9.52,5.5-19.65,10.6-22.5,11.34s-17.61-5.84-27.14-11.34L461,598.64c-9.53-5.5-19-11.71-21.07-13.81s-3.75-18.18-3.75-29.18v-56.3c0-11,.64-22.32,1.43-25.16s13.86-12.33,23.39-17.83l48.76-28.16c9.53-5.5,19.65-10.6,22.5-11.34s17.62,5.84,27.14,11.34l48.77,28.16c9.52,5.5,19,11.71,21.07,13.81s3.75,18.18,3.75,29.18Z" transform="translate(-341.24 -217.11)"/><path class="cls-2" d="M551.85,314.89c-9.52-5.5-25.11-5.5-34.64,0l-158.14,91.3c-9.53,5.5-17.33,19-17.33,30V618.81c0,11,7.8,24.5,17.33,30l158.14,91.3c9.53,5.5,25.12,5.5,34.64,0l63.77-36.81c9.52-5.5,17.32-1,17.32,10V817.39a20.06,20.06,0,0,0,20,20h54.38a20.06,20.06,0,0,0,20-20V436.19c0-11-7.79-24.5-17.32-30Zm81.09,240.76c0,11-.64,22.32-1.43,25.16s-13.87,12.33-23.39,17.83L559.35,626.8c-9.52,5.5-19.65,10.6-22.5,11.34s-17.61-5.84-27.14-11.34L461,598.64c-9.53-5.5-19-11.71-21.07-13.81s-3.75-18.18-3.75-29.18v-56.3c0-11,.64-22.32,1.43-25.16s13.86-12.33,23.39-17.83l48.76-28.16c9.53-5.5,19.65-10.6,22.5-11.34s17.62,5.84,27.14,11.34l48.77,28.16c9.52,5.5,19,11.71,21.07,13.81s3.75,18.18,3.75,29.18Z" transform="translate(-341.24 -217.11)"/><path class="cls-3" d="M1323,217.61a20.06,20.06,0,0,0-20,20V341.7c0,11-7.8,15.5-17.32,10l-63.77-36.81c-9.52-5.5-25.11-5.5-34.64,0l-158.15,91.3c-9.52,5.5-17.32,19-17.32,30V618.81c0,11,7.8,24.5,17.32,30l158.15,91.3c9.53,5.5,25.12,5.5,34.64,0L1380,648.81c9.53-5.5,17.32-19,17.32-30V237.61a20.06,20.06,0,0,0-20-20Zm-20,338c0,11-.64,22.32-1.43,25.16s-13.87,12.33-23.39,17.83l-48.77,28.16c-9.52,5.5-19.65,10.6-22.5,11.34s-17.61-5.84-27.14-11.34L1131,598.64c-9.53-5.5-19-11.71-21.07-13.81s-3.75-18.18-3.75-29.18v-56.3c0-11,.64-22.32,1.43-25.16s13.86-12.34,23.39-17.84l48.76-28.15c9.53-5.5,19.65-10.6,22.5-11.34s17.62,5.84,27.14,11.34l48.77,28.15c9.52,5.5,19,11.72,21.07,13.82s3.75,18.18,3.75,29.18Z" transform="translate(-341.24 -217.11)"/><path class="cls-4" d="M1323,217.61a20.06,20.06,0,0,0-20,20V341.7c0,11-7.8,15.5-17.32,10l-63.77-36.81c-9.52-5.5-25.11-5.5-34.64,0l-158.15,91.3c-9.52,5.5-17.32,19-17.32,30V618.81c0,11,7.8,24.5,17.32,30l158.15,91.3c9.53,5.5,25.12,5.5,34.64,0L1380,648.81c9.53-5.5,17.32-19,17.32-30V237.61a20.06,20.06,0,0,0-20-20Zm-20,338c0,11-.64,22.32-1.43,25.16s-13.87,12.33-23.39,17.83l-48.77,28.16c-9.52,5.5-19.65,10.6-22.5,11.34s-17.61-5.84-27.14-11.34L1131,598.64c-9.53-5.5-19-11.71-21.07-13.81s-3.75-18.18-3.75-29.18v-56.3c0-11,.64-22.32,1.43-25.16s13.86-12.34,23.39-17.84l48.76-28.15c9.53-5.5,19.65-10.6,22.5-11.34s17.62,5.84,27.14,11.34l48.77,28.15c9.52,5.5,19,11.72,21.07,13.82s3.75,18.18,3.75,29.18Z" transform="translate(-341.24 -217.11)"/><path class="cls-1" d="M997.62,438.42a20.06,20.06,0,0,0-20-20H768.85a20.06,20.06,0,0,0-20,20V730.11a20.06,20.06,0,0,0,20,20h54.38a20.06,20.06,0,0,0,20-20V532.8a20.06,20.06,0,0,1,20-20H977.62a20.06,20.06,0,0,0,20-20Z" transform="translate(-341.24 -217.11)"/><path class="cls-2" d="M997.62,438.42a20.06,20.06,0,0,0-20-20H768.85a20.06,20.06,0,0,0-20,20V730.11a20.06,20.06,0,0,0,20,20h54.38a20.06,20.06,0,0,0,20-20V532.8a20.06,20.06,0,0,1,20-20H977.62a20.06,20.06,0,0,0,20-20Z" transform="translate(-341.24 -217.11)"/><path class="cls-3" d="M1660.26,438.42a20.06,20.06,0,0,0-20-20H1431.48a20.06,20.06,0,0,0-20,20V730.11a20.06,20.06,0,0,0,20,20h54.38a20.06,20.06,0,0,0,20-20V532.8a20.06,20.06,0,0,1,20-20h114.4a20.06,20.06,0,0,0,20-20Z" transform="translate(-341.24 -217.11)"/><path class="cls-4" d="M1660.26,438.42a20.06,20.06,0,0,0-20-20H1431.48a20.06,20.06,0,0,0-20,20V730.11a20.06,20.06,0,0,0,20,20h54.38a20.06,20.06,0,0,0,20-20V532.8a20.06,20.06,0,0,1,20-20h114.4a20.06,20.06,0,0,0,20-20Z" transform="translate(-341.24 -217.11)"/></svg>